# xmcd
#
# Track frame offsets: 
#        150
#        25042
#        49508
#        67355
#        86858
#        106450
#        128932
#        147413
#        167424
#        182832
#        196903
#        224093
#        235447
#        255995
#        281114
#        300793
#        324471
#
# Disc length: 4728 seconds
#
# Revision: 3
# Processed by: cddbd v1.5.2PL0 Copyright (c) Steve Scherf et al.
# Submitted via: ExactAudioCopy v0.99pb4
#
DISCID=fc127611
DTITLE=Various Artist - Bar Jazz 2 - CD2
DYEAR=2002
DGENRE=Jazz
TTITLE0=Etta James - You Don't Know What Love Is
TTITLE1=Elvin Jones - A Change Is Gonna Come
TTITLE2=Suzanne Ciani - She Said Yes
TTITLE3=George Winston - Cast Your Fate To The Wind
TTITLE4=Lonnie Liston Smith - Sunset
TTITLE5=The Braxton Brothers - Sunset Bay
TTITLE6=Mark Isham - In The Blue Distance
TTITLE7=Earl Klugh - No Regrets
TTITLE8=Andy Summers - Charis
TTITLE9=Leo Kottke - Wonderland By Night
TTITLE10=Turtle Island String Quartet - Stolen Moments
TTITLE11=Jim Brickman - Rocket To The Moon
TTITLE12=Richard Dworsky - A Morning With The Roses
TTITLE13=Ray Obiedo - Gabrielle
TTITLE14=Liz Story - Captain April
TTITLE15=Yanni - Reflections Of Passion
TTITLE16=Elvin Jones (feat. Kevin Mahogany) - Lush Life
EXTD=YEAR: 2002
EXTT0=
EXTT1=
EXTT2=
EXTT3=
EXTT4=
EXTT5=
EXTT6=
EXTT7=
EXTT8=
EXTT9=
EXTT10=
EXTT11=
EXTT12=
EXTT13=
EXTT14=
EXTT15=
EXTT16=
PLAYORDER=
